<?xml version="1.0" standalone="no"?>
<!DOCTYPE svg PUBLIC "-//W3C//DTD SVG 20010904//EN"
 "http://www.w3.org/TR/2001/REC-SVG-20010904/DTD/svg10.dtd">
<svg version="1.0" xmlns="http://www.w3.org/2000/svg"
 width="478.000000pt" height="478.000000pt" viewBox="0 0 478.000000 478.000000"
 preserveAspectRatio="xMidYMid meet">
<metadata>
Created by potrace 1.11, written by Peter Selinger 2001-2013
</metadata>
<g transform="translate(0.000000,478.000000) scale(0.100000,-0.100000)"
fill="#000000" stroke="none">
<path d="M4025 3798 c-66 -38 -52 -127 23 -144 131 -29 185 -63 224 -141 23
-48 23 -51 25 -438 1 -214 4 -407 6 -427 12 -85 62 -179 117 -220 16 -11 31
-27 34 -34 3 -7 -21 -39 -52 -71 -59 -61 -86 -117 -98 -203 -4 -25 -8 -216 -9
-425 -1 -209 -5 -390 -8 -402 -25 -94 -108 -160 -224 -177 -50 -8 -87 -48 -78
-85 11 -46 30 -56 108 -56 62 0 82 5 139 33 70 34 144 106 178 172 40 79 43
113 45 515 1 261 6 404 13 431 26 92 110 163 210 177 66 10 103 55 88 105 -9
28 -49 52 -99 58 -88 12 -154 65 -191 153 -18 42 -19 78 -21 446 -1 429 -3
440 -58 550 -31 63 -124 147 -187 169 -65 23 -157 30 -185 14z"/>
<path d="M670 3792 c-87 -8 -185 -56 -250 -125 -45 -47 -89 -144 -92 -199 -2
-27 -5 -48 -8 -48 -3 0 -5 -174 -5 -388 -1 -376 -1 -388 -22 -428 -34 -65 -92
-110 -157 -124 -31 -6 -57 -10 -58 -8 -2 2 -18 -7 -35 -20 -28 -19 -33 -30
-33 -62 0 -45 35 -80 80 -80 73 0 147 -46 198 -125 l27 -40 1 -380 c1 -209 5
-402 9 -430 4 -27 8 -57 9 -65 15 -104 130 -233 241 -271 137 -45 211 -27 220
56 2 19 -24 63 -42 70 -10 3 -38 9 -63 12 -78 10 -124 40 -181 123 -21 31 -24
45 -25 163 -1 71 -5 131 -7 134 -3 3 -4 10 -1 16 8 23 10 107 1 107 -4 0 -5 4
-2 10 7 12 7 324 0 405 -7 80 -10 93 -18 101 -4 4 -7 15 -7 24 0 20 -43 78
-95 130 -19 19 -35 38 -35 41 0 3 27 34 59 67 63 66 85 116 95 217 2 28 5 52
6 55 5 15 0 312 -5 320 -3 6 -3 10 2 10 4 0 7 87 7 192 -2 225 9 271 76 332
34 31 118 66 156 66 55 0 92 57 67 103 -7 15 -15 27 -16 27 -1 0 -16 3 -32 8
-17 4 -46 6 -65 4z"/>
<path d="M1443 3630 c-35 -21 -47 -47 -37 -84 12 -48 47 -60 179 -63 66 -1
123 -2 127 -3 11 0 10 -1848 -1 -1854 -4 -3 -64 -6 -132 -7 -121 -2 -124 -3
-151 -30 -30 -30 -33 -44 -18 -84 18 -49 41 -51 437 -50 342 0 370 2 396 19
25 17 28 24 25 65 -5 71 -32 81 -230 81 l-158 0 0 33 c-1 47 -1 641 -1 715 l1
62 249 0 249 0 61 -34 c246 -139 397 -320 685 -818 37 -64 72 -118 79 -121 7
-2 64 -3 127 -2 147 2 180 16 180 80 -1 50 -45 88 -98 85 -15 -1 -49 -2 -77
-1 l-50 1 -85 143 c-47 78 -101 167 -121 197 -20 30 -56 87 -81 125 -86 131
-240 294 -342 360 -14 10 -26 21 -26 25 0 4 33 20 73 36 103 42 229 120 292
181 142 139 192 328 136 510 -45 147 -195 308 -356 380 -149 68 -133 67 -745
70 -532 2 -557 2 -587 -17z m1154 -166 c98 -24 192 -77 264 -147 162 -160 174
-353 31 -504 -79 -84 -238 -167 -384 -199 -91 -21 -612 -32 -623 -14 -5 8 -9
519 -6 827 1 49 3 52 29 55 15 2 161 2 324 1 239 -1 310 -5 365 -19z"/>
</g>
</svg>
